<?xml version="1.0" ?><svg width="32px" height="32px" viewBox="0 0 32 32" xmlns="http://www.w3.org/2000/svg"><title/><g data-name="filled line" id="filled_line"><path d="M20.2188,2.6558a1,1,0,0,0-1.0606,1.6015A12.0014,12.0014,0,0,1,22,12.04a1.001,1.001,0,0,0,.46.8418,12.0094,12.0094,0,0,1,5.0966,6.878,1,1,0,0,0,1.9258,0,13.9807,13.9807,0,0,0-9.2636-17.104Z" style="fill:#2b2a2a"/><path d="M11.7813,2.6558A13.9806,13.9806,0,0,0,2.5176,19.76a1,1,0,0,0,1.9258,0A12.0094,12.0094,0,0,1,9.54,12.8818,1.0717,1.0717,0,0,0,10,12a11.9747,11.9747,0,0,1,2.8418-7.7427,1,1,0,0,0-1.06-1.6015Z" style="fill:#2b2a2a"/><path d="M29.4824,19.2207A14,14,0,0,0,2,23a1,1,0,0,0,1,1H29a1,1,0,0,0,1-1A14.0018,14.0018,0,0,0,29.4824,19.2207Z" style="fill:#f6ae2d"/><path d="M29.97,22H2.03c-.02.33-.03.67-.03,1v6a1,1,0,0,0,1,1H29a1,1,0,0,0,1-1V23C30,22.67,29.99,22.33,29.97,22Z" style="fill:#eeeced"/><path d="M19.2334,9.3774a14.1026,14.1026,0,0,0-6.4668,0A1.0008,1.0008,0,0,0,12,10.35V23a1,1,0,0,0,1,1h6a1,1,0,0,0,1-1V10.35A1.0008,1.0008,0,0,0,19.2334,9.3774Z" style="fill:#eeeced"/><path d="M25,25H23a1,1,0,0,0,0,2h2a1,1,0,0,0,0-2Z" style="fill:#2b2a2a"/><path d="M17,25H15a1,1,0,0,0,0,2h2a1,1,0,0,0,0-2Z" style="fill:#2b2a2a"/><path d="M16,15a1,1,0,0,0-1,1v2a1,1,0,0,0,2,0V16A1,1,0,0,0,16,15Z" style="fill:#2b2a2a"/><path d="M9,25H7a1,1,0,0,0,0,2H9a1,1,0,0,0,0-2Z" style="fill:#2b2a2a"/><path d="M23,27h2a1,1,0,0,0,0-2H23a1,1,0,0,0,0,2Z"/><path d="M17,25H15a1,1,0,0,0,0,2h2a1,1,0,0,0,0-2Z"/><path d="M16,15a1,1,0,0,0-1,1v2a1,1,0,0,0,2,0V16A1,1,0,0,0,16,15Z"/><path d="M9,25H7a1,1,0,0,0,0,2H9a1,1,0,0,0,0-2Z"/><path d="M30,16A13.9179,13.9179,0,0,0,20.2188,2.6558a1,1,0,0,0-1.0606,1.6015,11.9527,11.9527,0,0,1,2.7059,6.0391,13.9529,13.9529,0,0,0-2.6307-.919,14.1026,14.1026,0,0,0-6.4668,0l-.0041.0018a13.9458,13.9458,0,0,0-2.63.9189,11.9636,11.9636,0,0,1,2.7089-6.0408,1,1,0,0,0-1.06-1.6015A13.9494,13.9494,0,0,0,2.452,19.49,14.0064,14.0064,0,0,0,2,23v6a1,1,0,0,0,1,1H29a1,1,0,0,0,1-1V23a14.0064,14.0064,0,0,0-.452-3.51A13.9362,13.9362,0,0,0,30,16ZM4.041,22a12.0831,12.0831,0,0,1,.4024-2.24,11.906,11.906,0,0,1,.6477-1.7423c.08-.1744.1613-.347.249-.517A11.8312,11.8312,0,0,1,12,11.6932V22ZM14,11.1874c.137-.0232.2715-.054.41-.0723.1105-.0148.2207-.03.3319-.0417a12.22,12.22,0,0,1,2.5179,0c.11.0116.2193.0267.3287.0413.1388.0184.2741.0494.4117.0726V22H14Zm6,.5055A11.9724,11.9724,0,0,1,27.959,22H20Zm7.998,4.0859-.0175-.0259q-.3563-.5886-.77-1.1389c-.0791-.1056-.1676-.2034-.25-.3067-.204-.2571-.4119-.5107-.6339-.7532-.1165-.1273-.24-.2473-.3617-.37-.2039-.207-.4112-.41-.6283-.6048-.1372-.1229-.2783-.2412-.4206-.359q-.3293-.2726-.6756-.5257c-.0854-.0624-.1627-.1337-.25-.1943a13.9964,13.9964,0,0,0-1.3467-5.502A11.9313,11.9313,0,0,1,27.998,15.7788ZM9.3574,5.9971A14.0292,14.0292,0,0,0,8.0107,11.499c-.0853.0595-.1612.1294-.2451.1906q-.3522.2571-.6859.5334c-.14.1161-.2791.2325-.4143.3536-.22.1967-.4293.4021-.6354.6115-.1191.1209-.2408.2388-.3553.3638-.2263.2472-.4386.5057-.6463.768-.0777.0981-.1618.1911-.2368.2912q-.4135.5522-.7724,1.1423l-.0172.0254A11.9317,11.9317,0,0,1,9.3574,5.9971ZM28,28H4V24H28Z"/></g></svg>